# xmcd
#
# Track frame offsets:
#	150
#	19851
#	39626
#	56462
#	73506
#	89282
#	109187
#	121724
#	141080
#	159884
#	171693
#
# Disc length: 2601 seconds
#
# Revision: 0
# Processed by: cddbd v1.5.2PL0 Copyright (c) Steve Scherf et al.
# Submitted via: EasyCDDAExtractor 15.1.0.1
#
DISCID=8f0a270b
DTITLE=Kalle Ahola - P‰‰kallolipun alla
DYEAR=2011
DGENRE=
TTITLE0=Puukkobulevardi
TTITLE1=Putsi poika
TTITLE2=Tuulisella terassilla
TTITLE3=Laiva pullossa
TTITLE4=Romua rakkauden valtatiell‰
TTITLE5=Varjon suura
TTITLE6=P‰‰kallolipun alla
TTITLE7=Pariisi
TTITLE8=Kissan 9 henke‰
TTITLE9=Kitaran rujo runous
TTITLE10=Viattomuus
EXTD=
EXTT0=
EXTT1=
EXTT2=
EXTT3=
EXTT4=
EXTT5=
EXTT6=
EXTT7=
EXTT8=
EXTT9=
EXTT10=
PLAYORDER=
